<?xml version="1.0" encoding="UTF-8" standalone="no"?>
<!DOCTYPE svg PUBLIC "-//W3C//DTD SVG 1.1//EN" "http://www.w3.org/Graphics/SVG/1.1/DTD/svg11.dtd">
<svg width="100%" height="100%" viewBox="0 0 1046 1017" version="1.1" xmlns="http://www.w3.org/2000/svg" xmlns:xlink="http://www.w3.org/1999/xlink" xml:space="preserve" xmlns:serif="http://www.serif.com/" style="fill-rule:evenodd;clip-rule:evenodd;stroke-linejoin:round;stroke-miterlimit:2;">
    <g transform="matrix(2.66667,0,0,2.66667,-23.7006,-24)">
        <g id="Mindapp-logo" serif:id="Mindapp logo" transform="matrix(134,0,0,134,205,143)">
            <path d="M1,0C1,-0.549 0.549,-1 0,-1C-0.549,-1 -1,-0.549 -1,0" style="fill:rgb(255,0,0);fill-rule:nonzero;"/>
            <path d="M-1,0C-1.288,0.183 -1.464,0.502 -1.464,0.844C-1.464,1.392 -1.012,1.844 -0.464,1.844C-0.302,1.844 -0.143,1.805 0,1.73" style="fill:rgb(0,255,0);fill-rule:nonzero;"/>
            <path d="M0,1.73C0.143,1.805 0.302,1.844 0.464,1.844C1.012,1.844 1.464,1.392 1.464,0.844C1.464,0.502 1.288,0.183 1,0" style="fill:rgb(0,0,255);fill-rule:nonzero;"/>
            <path d="M0,0C-0.309,-0.178 -0.691,-0.178 -1,0C-1.001,0.358 -0.81,0.691 -0.5,0.87" style="fill:rgb(255,255,0);fill-rule:nonzero;"/>
            <path d="M-0.5,0.87C-0.498,1.225 -0.307,1.553 0,1.73C0.307,1.553 0.498,1.225 0.5,0.87" style="fill:rgb(0,255,255);fill-rule:nonzero;"/>
            <path d="M0.5,0.87C0.81,0.691 1.001,0.358 1,0C0.691,-0.178 0.309,-0.178 0,0" style="fill:rgb(255,0,255);fill-rule:nonzero;"/>
            <path d="M0,0C-0.31,0.179 -0.501,0.512 -0.5,0.87C-0.191,1.048 0.191,1.048 0.5,0.87C0.501,0.512 0.31,0.179 0,0" style="fill:white;fill-rule:nonzero;"/>
        </g>
    </g>
</svg>
